<svg width="720" height="723" viewBox="0 0 720 723" fill="none" xmlns="http://www.w3.org/2000/svg">
<path d="M131.744 643.254L127.372 626.005C119.619 622.719 111.687 619.873 103.614 617.481L103.062 625.496L100.824 616.666C90.812 613.804 84 612.545 84 612.545C84 612.545 93.2 647.532 112.5 674.28L134.986 678.23L117.517 680.749C119.945 683.67 122.553 686.435 125.328 689.029C153.4 715.086 184.668 727.042 195.166 715.729C205.664 704.416 191.417 674.129 163.344 648.073C154.644 639.995 143.709 633.513 132.765 628.409L131.744 643.254Z" fill="#97C6AF"/>
<path d="M173.328 624.522L178.499 607.499C173.561 600.679 168.242 594.142 162.568 587.921L157.953 594.497L160.601 585.781C153.508 578.158 148.328 573.56 148.328 573.56C148.328 573.56 138.12 608.266 140.812 641.139L158.019 656.139L141.76 649.265C142.329 653.021 143.134 656.738 144.169 660.393C154.731 697.21 175.318 723.607 190.151 719.351C204.984 715.095 208.446 681.8 197.883 644.983C194.609 633.569 188.6 622.369 181.87 612.345L173.328 624.522Z" fill="#97C6AF"/>
<path d="M539.014 171.097H535.058V62.725C535.058 46.0898 528.45 30.1359 516.687 18.3728C504.925 6.60965 488.971 0.000795625 472.336 0H242.723C226.087 0 210.133 6.60851 198.37 18.3717C186.607 30.1349 179.998 46.0893 179.998 62.725V657.274C179.998 665.511 181.62 673.668 184.773 681.278C187.925 688.888 192.545 695.803 198.37 701.627C204.194 707.452 211.109 712.072 218.719 715.224C226.329 718.377 234.486 719.999 242.723 719.999H472.336C488.971 719.999 504.925 713.39 516.688 701.627C528.451 689.864 535.06 673.91 535.06 657.275V248.238H539.016L539.014 171.097Z" fill="#170723"/>
<path d="M474.864 16.313H444.895C446.273 19.6923 446.799 23.3587 446.427 26.9892C446.054 30.6196 444.794 34.1028 442.758 37.1317C440.723 40.1606 437.973 42.6424 434.752 44.3584C431.531 46.0744 427.938 46.972 424.288 46.972H292.747C289.097 46.9721 285.504 46.0746 282.283 44.3585C279.062 42.6425 276.312 40.1606 274.276 37.1314C272.24 34.1023 270.981 30.619 270.608 26.9884C270.236 23.3578 270.762 19.6913 272.141 16.312H244.149C231.726 16.312 219.811 21.2472 211.026 30.032C202.241 38.8168 197.306 50.7315 197.306 63.155V656.841C197.306 669.265 202.241 681.179 211.026 689.964C219.811 698.749 231.726 703.684 244.149 703.684H474.864C487.288 703.684 499.202 698.749 507.987 689.964C516.772 681.179 521.707 669.265 521.707 656.841V63.154C521.707 50.7308 516.772 38.8165 507.987 30.032C499.203 21.2475 487.288 16.3123 474.865 16.312L474.864 16.313Z" fill="white"/>
<path d="M330.107 252.806C330.107 248.655 331.199 244.578 333.276 240.984C335.352 237.39 338.338 234.407 341.934 232.334C338.341 230.259 334.265 229.167 330.115 229.167C325.966 229.166 321.89 230.258 318.296 232.333C314.703 234.407 311.719 237.391 309.644 240.985C307.57 244.578 306.477 248.654 306.477 252.803C306.477 256.953 307.57 261.029 309.644 264.622C311.719 268.216 314.703 271.2 318.296 273.274C321.89 275.349 325.966 276.441 330.115 276.44C334.265 276.44 338.341 275.348 341.934 273.273C338.339 271.201 335.354 268.218 333.278 264.625C331.203 261.032 330.11 256.955 330.111 252.806H330.107Z" fill="#CCCCCC"/>
<path d="M359.821 252.806C359.82 248.655 360.913 244.578 362.989 240.984C365.066 237.39 368.052 234.407 371.648 232.334C368.055 230.259 363.979 229.167 359.829 229.167C355.68 229.166 351.604 230.258 348.01 232.333C344.417 234.407 341.433 237.391 339.358 240.985C337.283 244.578 336.191 248.654 336.191 252.803C336.191 256.953 337.283 261.029 339.358 264.622C341.433 268.216 344.417 271.2 348.01 273.274C351.604 275.349 355.68 276.441 359.829 276.44C363.979 276.44 368.055 275.348 371.648 273.273C368.053 271.201 365.068 268.218 362.992 264.625C360.917 261.032 359.824 256.955 359.825 252.806H359.821Z" fill="#CCCCCC"/>
<path d="M388.862 276.443C401.916 276.443 412.499 265.86 412.499 252.806C412.499 239.752 401.916 229.169 388.862 229.169C375.808 229.169 365.225 239.752 365.225 252.806C365.225 265.86 375.808 276.443 388.862 276.443Z" fill="#5B2088"/>
<path d="M428.365 326.634H290.602C289.291 326.632 288.033 326.111 287.106 325.183C286.178 324.256 285.657 322.999 285.655 321.687V183.925C285.658 182.614 286.18 181.358 287.107 180.431C288.034 179.505 289.291 178.984 290.602 178.982H428.365C429.677 178.984 430.934 179.505 431.861 180.433C432.789 181.36 433.31 182.617 433.312 183.929V321.682C433.31 322.994 432.789 324.251 431.861 325.178C430.934 326.106 429.677 326.627 428.365 326.629V326.634ZM290.602 180.958C289.815 180.959 289.061 181.272 288.504 181.828C287.948 182.385 287.635 183.139 287.634 183.926V321.688C287.635 322.475 287.948 323.229 288.504 323.786C289.061 324.342 289.815 324.655 290.602 324.656H428.365C429.152 324.655 429.906 324.342 430.463 323.786C431.019 323.229 431.332 322.475 431.333 321.688V183.926C431.332 183.139 431.019 182.385 430.463 181.828C429.906 181.272 429.152 180.959 428.365 180.958H290.602Z" fill="#CCCCCC"/>
<path d="M459.125 432.234H247.841V434.213H459.125V432.234Z" fill="#CCCCCC"/>
<path d="M254.513 419.878C258.198 419.878 261.185 416.891 261.185 413.206C261.185 409.521 258.198 406.534 254.513 406.534C250.828 406.534 247.841 409.521 247.841 413.206C247.841 416.891 250.828 419.878 254.513 419.878Z" fill="#5B2088"/>
<path d="M459.125 498.955H247.841V500.934H459.125V498.955Z" fill="#CCCCCC"/>
<path d="M254.513 486.6C258.198 486.6 261.185 483.613 261.185 479.928C261.185 476.243 258.198 473.256 254.513 473.256C250.828 473.256 247.841 476.243 247.841 479.928C247.841 483.613 250.828 486.6 254.513 486.6Z" fill="#5B2088"/>
<path d="M455.258 574.934H388.486C387.333 574.933 386.227 574.474 385.411 573.658C384.596 572.843 384.137 571.737 384.136 570.584V547.184C384.137 546.031 384.596 544.925 385.411 544.109C386.227 543.294 387.333 542.835 388.486 542.834H455.258C456.411 542.835 457.517 543.294 458.332 544.109C459.148 544.925 459.607 546.031 459.608 547.184V570.584C459.607 571.737 459.148 572.843 458.332 573.658C457.517 574.474 456.411 574.933 455.258 574.934Z" fill="#5B2088"/>
<path d="M276.278 419.878C279.963 419.878 282.95 416.891 282.95 413.206C282.95 409.521 279.963 406.534 276.278 406.534C272.593 406.534 269.606 409.521 269.606 413.206C269.606 416.891 272.593 419.878 276.278 419.878Z" fill="#5B2088"/>
<path d="M298.043 419.878C301.728 419.878 304.715 416.891 304.715 413.206C304.715 409.521 301.728 406.534 298.043 406.534C294.358 406.534 291.371 409.521 291.371 413.206C291.371 416.891 294.358 419.878 298.043 419.878Z" fill="#5B2088"/>
<path d="M276.278 486.6C279.963 486.6 282.95 483.613 282.95 479.928C282.95 476.243 279.963 473.256 276.278 473.256C272.593 473.256 269.606 476.243 269.606 479.928C269.606 483.613 272.593 486.6 276.278 486.6Z" fill="#5B2088"/>
<path d="M298.043 486.6C301.728 486.6 304.715 483.613 304.715 479.928C304.715 476.243 301.728 473.256 298.043 473.256C294.358 473.256 291.371 476.243 291.371 479.928C291.371 483.613 294.358 486.6 298.043 486.6Z" fill="#5B2088"/>
<path d="M625.753 452.901L608.953 486.158L558.731 508.992C553.367 518.057 536.322 518.751 535.082 512.892C533.691 506.316 555.782 495.731 555.782 495.731L597.794 467.315L601.47 442.852L625.753 452.901Z" fill="#FFB9B9"/>
<path d="M623.771 676.078L626.869 700.863L608.9 702.103L607.042 676.08L623.771 676.078Z" fill="#FFB9B9"/>
<path d="M621.293 697.145C622.9 695.446 624.382 693.634 625.727 691.723C628.302 688.159 630.587 706.439 630.587 706.439C630.587 706.439 633.066 713.874 632.446 717.592C631.826 721.31 617.576 721.31 615.097 720.692C612.618 720.074 600.227 720.692 600.227 720.692H581.639C565.529 713.257 581.639 708.3 581.639 708.3C586.596 707.68 603.325 692.19 603.325 692.19L607.043 685.375C609.521 684.755 612 694.049 612 694.049L621.293 697.145Z" fill="#090814"/>
<path d="M670.243 676.388L673.343 701.172L655.374 702.412L653.515 676.388H670.243Z" fill="#FFB9B9"/>
<path d="M667.762 697.455C669.368 695.756 670.85 693.944 672.196 692.033C674.771 688.469 677.056 706.749 677.056 706.749C677.056 706.749 679.534 713.565 678.915 717.282C678.296 720.999 664.045 720.999 661.566 720.382C659.087 719.765 646.696 721.002 646.696 721.002H628.108C611.998 713.567 628.108 708.61 628.108 708.61C633.065 707.99 649.794 692.5 649.794 692.5L653.512 685.685C655.99 685.065 658.469 694.359 658.469 694.359L667.762 697.455Z" fill="#090814"/>
<path d="M649.792 516.532C652.271 519.632 651.031 530.163 651.031 530.163C651.031 530.163 655.368 564.241 653.509 567.339C651.65 570.437 654.748 572.915 656.609 577.253C658.47 581.591 660.327 592.123 660.327 592.123C670.86 600.797 670.241 640.452 670.241 640.452L673.958 675.769C672.719 679.487 655.37 680.106 652.892 679.487C650.414 678.868 642.978 623.103 642.978 623.103L626.249 591.503C626.249 591.503 627.488 675.768 627.488 679.486C627.488 683.204 610.759 681.345 607.041 681.345C603.323 681.345 603.323 619.385 603.323 619.385L599.605 603.276L579.778 529.544V520.867L582.878 516.53C582.878 516.53 647.314 513.434 649.792 516.532Z" fill="#090814"/>
<path d="M622.533 375.884C633.141 375.884 641.741 367.284 641.741 356.676C641.741 346.068 633.141 337.468 622.533 337.468C611.925 337.468 603.325 346.068 603.325 356.676C603.325 367.284 611.925 375.884 622.533 375.884Z" fill="#FFB9B9"/>
<path d="M612.93 365.659C616.823 374.329 614.517 386.438 606.729 399.737L638.33 384.867L633.372 380.53L634.612 368.138L612.93 365.659Z" fill="#FFB9B9"/>
<path d="M612.927 385.487C608.789 387.947 606.314 392.467 604.893 397.067C602.262 405.582 600.678 414.387 600.177 423.285L598.677 449.925L580.089 520.56C596.198 534.191 605.489 531.093 627.178 519.94C648.867 508.787 651.343 523.66 651.343 523.66C651.343 523.66 653.202 523.04 651.343 521.182C649.484 519.324 651.343 521.182 653.202 519.323C655.061 517.464 653.202 519.323 652.582 517.464C651.962 515.605 652.582 516.844 653.202 516.225C653.822 515.606 650.724 510.025 650.724 510.025L655.681 463.555L661.881 397.878C654.446 388.584 633.381 380.529 633.381 380.529L614.167 394.16C607.967 396.638 612.928 386.725 612.928 386.725L612.927 385.487Z" fill="#5B2088"/>
<path d="M672.099 437.223L674.577 474.399L642.977 519.63C642.977 530.163 637.401 532.642 637.401 532.642C635.289 529.271 633.425 525.751 631.825 522.109C628.725 515.293 633.684 509.717 633.684 509.717L655.37 463.867L646.076 440.942L672.099 437.223Z" fill="#FFB9B9"/>
<path d="M661.571 398.189C672.104 401.907 673.963 442.181 673.963 442.181C661.571 435.365 646.701 446.518 646.701 446.518C646.701 446.518 643.601 435.985 639.885 422.354C638.762 418.52 638.628 414.464 639.495 410.564C640.361 406.663 642.201 403.046 644.842 400.048C644.842 400.048 651.034 394.472 661.571 398.189Z" fill="#5B2088"/>
<path d="M640.19 362.561C637.745 360.605 634.409 364.161 634.409 364.161L632.453 346.555C632.453 346.555 620.227 348.022 612.402 346.066C604.577 344.11 603.355 353.157 603.355 353.157C602.952 349.505 602.87 345.824 603.11 342.157C603.599 337.757 609.957 333.357 621.205 330.42C632.453 327.483 638.321 340.201 638.321 340.201C646.142 344.11 642.635 364.518 640.19 362.561Z" fill="#090814"/>
</svg>
